<svg width="47" height="47" viewBox="0 0 47 47" fill="none" xmlns="http://www.w3.org/2000/svg">
<g id="Menu/Feedback">
<path id="Vector" d="M28.5951 33.2918H18.2192V20.7585L24.7158 13.7085L25.6272 14.4674C25.7207 14.5489 25.7908 14.6632 25.8376 14.8101C25.8843 14.9569 25.9077 15.1364 25.9077 15.3486V15.5934L24.8561 20.7585H31.8434C32.2173 20.7585 32.5445 20.9054 32.8249 21.1991C33.1054 21.4929 33.2456 21.8356 33.2456 22.2272V24.2306C33.2456 24.3475 33.2573 24.4671 33.2806 24.5895C33.304 24.7119 33.2923 24.8302 33.2456 24.9444L30.3011 32.0434C30.1628 32.3902 29.9322 32.685 29.6095 32.9277C29.2867 33.1705 28.9486 33.2918 28.5951 33.2918ZM19.6214 31.8231H28.8989L31.8434 24.5038V22.2272H23.1267L24.3653 16.1319L19.6214 21.3705V31.8231ZM18.2192 20.7585V22.2272H15.1111V31.8231H18.2192V33.2918H13.709V20.7585H18.2192Z" fill="white"/>
</g>
</svg>
