<svg width="47" height="48" viewBox="0 0 47 48" fill="none" xmlns="http://www.w3.org/2000/svg">
<g id="Menu/Feedback">
<path id="Vector" d="M28.5951 33.785H18.2192V21.2517L24.7158 14.2017L25.6272 14.9605C25.7207 15.0421 25.7908 15.1563 25.8376 15.3032C25.8843 15.4501 25.9077 15.6296 25.9077 15.8418V16.0866L24.8561 21.2517H31.8434C32.2173 21.2517 32.5445 21.3985 32.8249 21.6923C33.1054 21.986 33.2456 22.3287 33.2456 22.7204V24.7238C33.2456 24.8406 33.2573 24.9603 33.2806 25.0827C33.304 25.205 33.2923 25.3234 33.2456 25.4376L30.3011 32.5366C30.1628 32.8833 29.9322 33.1781 29.6095 33.4209C29.2867 33.6636 28.9486 33.785 28.5951 33.785ZM19.6214 32.3162H28.8989L31.8434 24.997V22.7204H23.1267L24.3653 16.6251L19.6214 21.8636V32.3162ZM18.2192 21.2517V22.7204H15.1111V32.3162H18.2192V33.785H13.709V21.2517H18.2192Z" fill="black"/>
</g>
</svg>
