<svg width="47" height="47" viewBox="0 0 47 47" fill="none" xmlns="http://www.w3.org/2000/svg">
<g id="Menu/Funcion&#195;&#161;rios">
<path id="Vector" d="M13.5125 35.25C13.0425 35.25 12.6313 35.0738 12.2788 34.7213C11.9263 34.3688 11.75 33.9575 11.75 33.4875V19.3875C11.75 18.9175 11.9263 18.5063 12.2788 18.1538C12.6313 17.8013 13.0425 17.625 13.5125 17.625H20.8563V13.5125C20.8563 13.0425 21.0325 12.6313 21.385 12.2788C21.7375 11.9263 22.1528 11.75 22.6308 11.75H24.3692C24.8472 11.75 25.2625 11.9263 25.615 12.2788C25.9675 12.6313 26.1438 13.0425 26.1438 13.5125V17.625H33.4875C33.9575 17.625 34.3688 17.8013 34.7213 18.1538C35.0738 18.5063 35.25 18.9175 35.25 19.3875V33.4875C35.25 33.9575 35.0738 34.3688 34.7213 34.7213C34.3688 35.0738 33.9575 35.25 33.4875 35.25H13.5125ZM13.5125 33.4875H33.4875V19.3875H26.1438V20.2688C26.1438 20.8171 25.9675 21.2479 25.615 21.5613C25.2625 21.8746 24.8472 22.0313 24.3692 22.0313H22.6308C22.1528 22.0313 21.7375 21.8746 21.385 21.5613C21.0325 21.2479 20.8563 20.8171 20.8563 20.2688V19.3875H13.5125V33.4875ZM16.215 30.3444H23.2356V29.9331C23.2356 29.5806 23.1475 29.2673 22.9713 28.9931C22.795 28.719 22.5698 28.5329 22.2956 28.435C21.669 28.2196 21.1794 28.0776 20.8269 28.0091C20.4744 27.9405 20.1317 27.9063 19.7988 27.9063C19.4267 27.9063 19.0301 27.9503 18.6091 28.0384C18.188 28.1266 17.7131 28.2588 17.1844 28.435C16.8906 28.5329 16.6556 28.719 16.4794 28.9931C16.3031 29.2673 16.215 29.5806 16.215 29.9331V30.3444ZM26.085 28.3763H31.0788V26.9075H26.085V28.3763ZM19.7988 26.9075C20.2394 26.9075 20.6139 26.7533 20.9223 26.4448C21.2308 26.1364 21.385 25.7619 21.385 25.3213C21.385 24.8806 21.2308 24.5061 20.9223 24.1977C20.6139 23.8892 20.2394 23.735 19.7988 23.735C19.3581 23.735 18.9836 23.8892 18.6752 24.1977C18.3667 24.5061 18.2125 24.8806 18.2125 25.3213C18.2125 25.7619 18.3667 26.1364 18.6752 26.4448C18.9836 26.7533 19.3581 26.9075 19.7988 26.9075ZM26.085 25.0569H31.0788V23.5881H26.085V25.0569ZM22.6188 20.2688H24.3813V13.5125H22.6188V20.2688Z" fill="white"/>
</g>
</svg>
