<svg width="47" height="48" viewBox="0 0 47 48" fill="none" xmlns="http://www.w3.org/2000/svg">
<g id="Menu/Funcion&#195;&#161;rios">
<path id="Vector" d="M13.5125 35.7432C13.0425 35.7432 12.6313 35.5669 12.2788 35.2144C11.9263 34.8619 11.75 34.4507 11.75 33.9807V19.8807C11.75 19.4107 11.9263 18.9994 12.2788 18.6469C12.6313 18.2944 13.0425 18.1182 13.5125 18.1182H20.8563V14.0057C20.8563 13.5357 21.0325 13.1244 21.385 12.7719C21.7375 12.4194 22.1528 12.2432 22.6308 12.2432H24.3692C24.8472 12.2432 25.2625 12.4194 25.615 12.7719C25.9675 13.1244 26.1438 13.5357 26.1438 14.0057V18.1182H33.4875C33.9575 18.1182 34.3688 18.2944 34.7213 18.6469C35.0738 18.9994 35.25 19.4107 35.25 19.8807V33.9807C35.25 34.4507 35.0738 34.8619 34.7213 35.2144C34.3688 35.5669 33.9575 35.7432 33.4875 35.7432H13.5125ZM13.5125 33.9807H33.4875V19.8807H26.1438V20.7619C26.1438 21.3102 25.9675 21.7411 25.615 22.0544C25.2625 22.3677 24.8472 22.5244 24.3692 22.5244H22.6308C22.1528 22.5244 21.7375 22.3677 21.385 22.0544C21.0325 21.7411 20.8563 21.3102 20.8563 20.7619V19.8807H13.5125V33.9807ZM16.215 30.8375H23.2356V30.4263C23.2356 30.0738 23.1475 29.7605 22.9713 29.4863C22.795 29.2121 22.5698 29.0261 22.2956 28.9282C21.669 28.7127 21.1794 28.5708 20.8269 28.5022C20.4744 28.4337 20.1317 28.3994 19.7988 28.3994C19.4267 28.3994 19.0301 28.4435 18.6091 28.5316C18.188 28.6197 17.7131 28.7519 17.1844 28.9282C16.8906 29.0261 16.6556 29.2121 16.4794 29.4863C16.3031 29.7605 16.215 30.0738 16.215 30.4263V30.8375ZM26.085 28.8694H31.0788V27.4007H26.085V28.8694ZM19.7988 27.4007C20.2394 27.4007 20.6139 27.2464 20.9223 26.938C21.2308 26.6296 21.385 26.255 21.385 25.8144C21.385 25.3738 21.2308 24.9993 20.9223 24.6908C20.6139 24.3824 20.2394 24.2282 19.7988 24.2282C19.3581 24.2282 18.9836 24.3824 18.6752 24.6908C18.3667 24.9993 18.2125 25.3738 18.2125 25.8144C18.2125 26.255 18.3667 26.6296 18.6752 26.938C18.9836 27.2464 19.3581 27.4007 19.7988 27.4007ZM26.085 25.55H31.0788V24.0813H26.085V25.55ZM22.6188 20.7619H24.3813V14.0057H22.6188V20.7619Z" fill="black"/>
</g>
</svg>
