<svg width="47" height="48" viewBox="0 0 47 48" fill="none" xmlns="http://www.w3.org/2000/svg">
<g id="Menu/Welcomekit">
<path id="Vector" d="M25.815 21.117V19.6483C26.4515 19.3627 27.1024 19.1485 27.7678 19.0057C28.4332 18.8629 29.1323 18.7915 29.8652 18.7915C30.3667 18.7915 30.8585 18.8323 31.3407 18.9139C31.8228 18.9955 32.2953 19.0975 32.7582 19.2199V20.5662C32.2953 20.3827 31.8277 20.245 31.3551 20.1532C30.8826 20.0614 30.386 20.0155 29.8652 20.0155C29.1323 20.0155 28.4284 20.1124 27.7534 20.3062C27.0783 20.4999 26.4322 20.7702 25.815 21.117ZM25.815 27.8488V26.3494C26.4515 26.0741 27.1024 25.8675 27.7678 25.7298C28.4332 25.5921 29.1323 25.5233 29.8652 25.5233C30.3667 25.5233 30.8585 25.5641 31.3407 25.6457C31.8228 25.7273 32.2953 25.8293 32.7582 25.9517V27.298C32.2953 27.1144 31.8277 26.9767 31.3551 26.8849C30.8826 26.7931 30.386 26.7472 29.8652 26.7472C29.1323 26.7472 28.4284 26.839 27.7534 27.0226C27.0783 27.2062 26.4322 27.4816 25.815 27.8488ZM25.815 24.4829V23.0142C26.4515 22.7286 27.1024 22.5144 27.7678 22.3716C28.4332 22.2288 29.1323 22.1574 29.8652 22.1574C30.3667 22.1574 30.8585 22.1982 31.3407 22.2798C31.8228 22.3614 32.2953 22.4634 32.7582 22.5858V23.9321C32.2953 23.7485 31.8277 23.6108 31.3551 23.519C30.8826 23.4272 30.386 23.3813 29.8652 23.3813C29.1323 23.3813 28.4284 23.4782 27.7534 23.672C27.0783 23.8658 26.4322 24.1361 25.815 24.4829ZM16.7889 29.5011C17.822 29.5011 18.8276 29.6286 19.8058 29.8836C20.784 30.1386 21.7456 30.5211 22.6906 31.0311V17.9653C21.8227 17.3534 20.8813 16.8791 19.8665 16.5425C18.8517 16.2059 17.8258 16.0376 16.7889 16.0376C16.056 16.0376 15.3376 16.1345 14.6336 16.3283C13.9297 16.5221 13.2209 16.7618 12.5073 17.0474V30.3273C13.1052 30.0417 13.785 29.8326 14.5468 29.7C15.3087 29.5674 16.056 29.5011 16.7889 29.5011ZM24.4264 31.0311C25.3907 30.5211 26.3358 30.1386 27.2615 29.8836C28.1873 29.6286 29.1709 29.5011 30.2124 29.5011C30.9453 29.5011 31.7023 29.5623 32.4834 29.6847C33.2645 29.8071 33.9347 29.9703 34.494 30.1743V17.0474C33.8383 16.7006 33.1457 16.4456 32.4162 16.2824C31.6867 16.1192 30.9521 16.0376 30.2124 16.0376C29.1709 16.0376 28.1632 16.2059 27.1892 16.5425C26.2152 16.8791 25.2943 17.3534 24.4264 17.9653V31.0311ZM23.5585 33.785C22.5749 33.0098 21.5045 32.4131 20.3473 31.995C19.1901 31.5768 18.004 31.3677 16.7889 31.3677C16.0842 31.3677 15.3922 31.4595 14.7127 31.6431C14.0332 31.8267 13.3559 32.0511 12.6809 32.3162C12.2353 32.5406 11.8057 32.51 11.392 32.2244C10.9783 31.9389 10.7715 31.5309 10.7715 31.0005V16.8332C10.7715 16.5272 10.839 16.2467 10.974 15.9917C11.109 15.7367 11.3115 15.5378 11.5815 15.395C12.3916 14.987 13.2343 14.6861 14.1099 14.4924C14.9854 14.2986 15.8784 14.2017 16.7889 14.2017C18.004 14.2017 19.1853 14.3751 20.3328 14.7218C21.4804 15.0686 22.5556 15.599 23.5585 16.313C24.5421 15.599 25.5981 15.0686 26.7263 14.7218C27.8546 14.3751 29.0166 14.2017 30.2124 14.2017C31.1163 14.2017 32.0029 14.2986 32.872 14.4924C33.7412 14.6861 34.5808 14.987 35.3909 15.395C35.6609 15.5378 35.8682 15.7367 36.0128 15.9917C36.1575 16.2467 36.2298 16.5272 36.2298 16.8332V31.0005C36.2298 31.5695 36.0128 32.0025 35.5789 32.2993C35.1449 32.5962 34.7158 32.6018 34.2915 32.3162C33.6358 32.0307 32.9681 31.8012 32.2886 31.6278C31.6092 31.4544 30.9171 31.3677 30.2124 31.3677C28.9973 31.3677 27.8305 31.5819 26.7119 32.0103C25.5933 32.4386 24.5421 33.0302 23.5585 33.785Z" fill="black"/>
</g>
</svg>
