<svg width="47" height="47" viewBox="0 0 47 47" fill="none" xmlns="http://www.w3.org/2000/svg">
<g id="Menu/Welcomekit">
<path id="Vector" d="M25.815 20.6239V19.1551C26.4515 18.8695 27.1024 18.6553 27.7678 18.5125C28.4332 18.3697 29.1323 18.2983 29.8652 18.2983C30.3667 18.2983 30.8585 18.3391 31.3407 18.4207C31.8228 18.5023 32.2953 18.6043 32.7582 18.7267V20.0731C32.2953 19.8895 31.8277 19.7518 31.3551 19.66C30.8826 19.5682 30.386 19.5223 29.8652 19.5223C29.1323 19.5223 28.4284 19.6192 27.7534 19.813C27.0783 20.0068 26.4322 20.2771 25.815 20.6239ZM25.815 27.3556V25.8563C26.4515 25.5809 27.1024 25.3744 27.7678 25.2367C28.4332 25.099 29.1323 25.0301 29.8652 25.0301C30.3667 25.0301 30.8585 25.0709 31.3407 25.1525C31.8228 25.2341 32.2953 25.3361 32.7582 25.4585V26.8049C32.2953 26.6213 31.8277 26.4836 31.3551 26.3918C30.8826 26.3 30.386 26.2541 29.8652 26.2541C29.1323 26.2541 28.4284 26.3459 27.7534 26.5295C27.0783 26.7131 26.4322 26.9884 25.815 27.3556ZM25.815 23.9897V22.521C26.4515 22.2354 27.1024 22.0212 27.7678 21.8784C28.4332 21.7356 29.1323 21.6642 29.8652 21.6642C30.3667 21.6642 30.8585 21.705 31.3407 21.7866C31.8228 21.8682 32.2953 21.9702 32.7582 22.0926V23.439C32.2953 23.2554 31.8277 23.1177 31.3551 23.0259C30.8826 22.9341 30.386 22.8882 29.8652 22.8882C29.1323 22.8882 28.4284 22.9851 27.7534 23.1789C27.0783 23.3727 26.4322 23.643 25.815 23.9897ZM16.7889 29.008C17.822 29.008 18.8276 29.1355 19.8058 29.3905C20.784 29.6455 21.7456 30.0279 22.6906 30.5379V17.4722C21.8227 16.8602 20.8813 16.3859 19.8665 16.0493C18.8517 15.7127 17.8258 15.5444 16.7889 15.5444C16.056 15.5444 15.3376 15.6413 14.6336 15.8351C13.9297 16.0289 13.2209 16.2686 12.5073 16.5542V29.8342C13.1052 29.5486 13.785 29.3395 14.5468 29.2069C15.3087 29.0743 16.056 29.008 16.7889 29.008ZM24.4264 30.5379C25.3907 30.0279 26.3358 29.6455 27.2615 29.3905C28.1873 29.1355 29.1709 29.008 30.2124 29.008C30.9453 29.008 31.7023 29.0692 32.4834 29.1916C33.2645 29.314 33.9347 29.4772 34.494 29.6812V16.5542C33.8383 16.2074 33.1457 15.9524 32.4162 15.7892C31.6867 15.626 30.9521 15.5444 30.2124 15.5444C29.1709 15.5444 28.1632 15.7127 27.1892 16.0493C26.2152 16.3859 25.2943 16.8602 24.4264 17.4722V30.5379ZM23.5585 33.2918C22.5749 32.5167 21.5045 31.92 20.3473 31.5018C19.1901 31.0836 18.004 30.8745 16.7889 30.8745C16.0842 30.8745 15.3922 30.9663 14.7127 31.1499C14.0332 31.3335 13.3559 31.5579 12.6809 31.8231C12.2353 32.0475 11.8057 32.0169 11.392 31.7313C10.9783 31.4457 10.7715 31.0377 10.7715 30.5073V16.34C10.7715 16.034 10.839 15.7535 10.974 15.4985C11.109 15.2435 11.3115 15.0447 11.5815 14.9019C12.3916 14.4939 13.2343 14.193 14.1099 13.9992C14.9854 13.8054 15.8784 13.7085 16.7889 13.7085C18.004 13.7085 19.1853 13.8819 20.3328 14.2287C21.4804 14.5755 22.5556 15.1058 23.5585 15.8198C24.5421 15.1058 25.5981 14.5755 26.7263 14.2287C27.8546 13.8819 29.0166 13.7085 30.2124 13.7085C31.1163 13.7085 32.0029 13.8054 32.872 13.9992C33.7412 14.193 34.5808 14.4939 35.3909 14.9019C35.6609 15.0447 35.8682 15.2435 36.0128 15.4985C36.1575 15.7535 36.2298 16.034 36.2298 16.34V30.5073C36.2298 31.0763 36.0128 31.5093 35.5789 31.8062C35.1449 32.103 34.7158 32.1087 34.2915 31.8231C33.6358 31.5375 32.9681 31.308 32.2886 31.1346C31.6092 30.9612 30.9171 30.8745 30.2124 30.8745C28.9973 30.8745 27.8305 31.0887 26.7119 31.5171C25.5933 31.9455 24.5421 32.5371 23.5585 33.2918Z" fill="white"/>
</g>
</svg>
