<svg width="247" height="66" viewBox="0 0 247 66" fill="none" xmlns="http://www.w3.org/2000/svg">
<g id="Logo">
<g id="O/ME">
<path d="M27.3531 56.1782C23.3656 56.1782 19.7185 55.4863 16.4118 54.1024C13.1052 52.7186 10.2118 50.7709 7.7318 48.2595C5.25179 45.7481 3.331 42.8266 1.96942 39.4951C0.656474 36.1124 0 32.4477 0 28.5012C0 24.5547 0.656474 20.9157 1.96942 17.5842C3.331 14.2014 5.25179 11.2543 7.7318 8.74291C10.2118 6.23148 13.1052 4.28384 16.4118 2.89999C19.7185 1.51614 23.3656 0.824219 27.3531 0.824219C31.2919 0.824219 34.9147 1.51614 38.2214 2.89999C41.5767 4.28384 44.47 6.25711 46.9014 8.81979C49.3814 11.3312 51.3022 14.2783 52.6638 17.661C54.0253 20.9925 54.7061 24.6059 54.7061 28.5012C54.7061 32.3965 54.0253 36.0355 52.6638 39.4182C51.3022 42.7497 49.3814 45.6968 46.9014 48.2595C44.47 50.7709 41.5767 52.7186 38.2214 54.1024C34.9147 55.4863 31.2919 56.1782 27.3531 56.1782ZM27.3531 48.1057C30.1735 48.1057 32.7507 47.6188 35.0849 46.645C37.4676 45.6712 39.51 44.313 41.212 42.5703C42.9626 40.7765 44.2998 38.7007 45.2237 36.343C46.1963 33.9341 46.6826 31.3201 46.6826 28.5012C46.6826 25.6822 46.1963 23.0939 45.2237 20.7363C44.2998 18.3273 42.9626 16.2516 41.212 14.5089C39.51 12.7151 37.4676 11.3312 35.0849 10.3574C32.7507 9.38358 30.1735 8.89667 27.3531 8.89667C24.5327 8.89667 21.9311 9.38358 19.5483 10.3574C17.2142 11.3312 15.1718 12.7151 13.4212 14.5089C11.6706 16.2516 10.3334 18.3273 9.40945 20.7363C8.48553 23.0939 8.02357 25.6822 8.02357 28.5012C8.02357 31.3201 8.48553 33.9341 9.40945 36.343C10.3334 38.7007 11.6706 40.7765 13.4212 42.5703C15.1718 44.313 17.2142 45.6712 19.5483 46.645C21.9311 47.6188 24.5327 48.1057 27.3531 48.1057Z" fill="#CE332D"/>
<path d="M68.9383 65.5576L98.9902 1.59302H107.233L77.2536 65.5576H68.9383Z" fill="#CE332D"/>
<path d="M129.503 55.4094V1.59302H137.235L157.658 32.8834L154.303 32.8065L174.946 1.59302H182.386V55.4094H174.508V33.0371C174.508 28.5781 174.605 24.5034 174.8 20.8131C175.043 17.0716 175.432 13.3301 175.967 9.5886L176.915 12.5869L158.242 39.9564H153.428L135.12 12.7407L135.922 9.5886C136.457 13.2276 136.822 16.8922 137.016 20.5825C137.259 24.2215 137.381 28.3731 137.381 33.0371V55.4094H129.503Z" fill="#CE332D"/>
<path d="M208.955 55.4094V1.59302H245.207V9.5886H216.833V47.4138H245.207V55.4094H208.955ZM212.821 31.8071V23.8115H241.195V31.8071H212.821Z" fill="#CE332D"/>
</g>
</g>
</svg>
