<svg width="36" height="35" viewBox="0 0 36 35" fill="none" xmlns="http://www.w3.org/2000/svg">
<g id="Navigation/Edit">
<path id="Vector" d="M9.46313 25.9H10.9527L22.1072 14.7351L20.6176 13.2441L9.46313 24.4091V25.9ZM25.9711 13.4274L21.9056 9.39508L23.4763 7.82298C23.8299 7.46899 24.26 7.29199 24.7666 7.29199C25.2731 7.29199 25.7032 7.46899 26.0569 7.82298L27.5233 9.29072C27.8769 9.64471 28.0599 10.069 28.0723 10.5637C28.0846 11.0584 27.914 11.4827 27.5603 11.8367L25.9711 13.4274ZM24.6646 14.7537L11.7218 27.7087H7.65625V23.6393L20.5991 10.6843L24.6646 14.7537ZM21.3566 13.9838L20.6176 13.2441L22.1072 14.7351L21.3566 13.9838Z" fill="#CE332D"/>
</g>
</svg>
