<svg width="64" height="64" viewBox="0 0 64 64" fill="none" xmlns="http://www.w3.org/2000/svg">
<g id="Navigation/Upload">
<path id="Vector" d="M19.349 50.5333C16.2505 50.5333 13.5844 49.4165 11.3507 47.1827C9.11688 44.9489 8 42.2828 8 39.1844C8 36.3741 8.89171 33.8972 10.6751 31.7535C12.4585 29.6098 14.7553 28.3218 17.5656 27.8894C18.2861 24.3946 19.9795 21.5394 22.6456 19.3236C25.3117 17.1079 28.3921 16 31.8869 16C35.9581 16 39.3718 17.4682 42.128 20.4045C44.8842 23.3408 46.2623 26.8626 46.2623 30.9698V32.2669C48.8563 32.1948 51.0541 33.0325 52.8555 34.7799C54.6569 36.5272 55.5576 38.734 55.5576 41.4001C55.5576 43.8861 54.6569 46.0298 52.8555 47.8312C51.0541 49.6326 48.9104 50.5333 46.4244 50.5333H33.4001C32.5354 50.5333 31.7788 50.2091 31.1303 49.5606C30.4818 48.912 30.1575 48.1555 30.1575 47.2908V33.3477L25.672 37.8333L23.3481 35.5094L31.7788 27.0788L40.2095 35.5094L37.8857 37.8333L33.4001 33.3477V47.2908H46.4244C48.0457 47.2908 49.4328 46.7143 50.5857 45.5614C51.7386 44.4085 52.3151 43.0214 52.3151 41.4001C52.3151 39.7788 51.7386 38.3917 50.5857 37.2388C49.4328 36.0859 48.0457 35.5094 46.4244 35.5094H43.0197V30.9698C43.0197 27.7633 41.9299 25.0071 39.7501 22.7013C37.5704 20.3955 34.8773 19.2426 31.6707 19.2426C28.4642 19.2426 25.7621 20.3955 23.5643 22.7013C21.3666 25.0071 20.2677 27.7633 20.2677 30.9698H19.2409C17.0071 30.9698 15.1156 31.7535 13.5664 33.3207C12.0172 34.8879 11.2426 36.8245 11.2426 39.1303C11.2426 41.3641 12.0339 43.2826 13.6166 44.8859C15.1993 46.4891 17.1101 47.2908 19.349 47.2908H26.915V50.5333H19.349Z" fill="#2E2E2E"/>
</g>
</svg>
