<svg width="223" height="35" viewBox="0 0 223 35" fill="none" xmlns="http://www.w3.org/2000/svg">
<circle cx="18" cy="17.5" r="17" fill="white" stroke="white"/>
<path d="M72.791 17.7246C72.791 19.3327 72.498 20.6771 71.9121 21.7578C71.3262 22.832 70.4766 23.6426 69.3633 24.1895C68.2565 24.7298 66.9121 25 65.3301 25H61.4531V10.7227H65.7598C67.2116 10.7227 68.4616 10.9896 69.5098 11.5234C70.5579 12.0508 71.3652 12.8353 71.9316 13.877C72.5046 14.9121 72.791 16.1947 72.791 17.7246ZM71.043 17.7832C71.043 16.5007 70.8281 15.4427 70.3984 14.6094C69.9753 13.776 69.3503 13.1576 68.5234 12.7539C67.7031 12.3438 66.6973 12.1387 65.5059 12.1387H63.1133V23.5742H65.1348C67.1009 23.5742 68.5755 23.0892 69.5586 22.1191C70.5482 21.1491 71.043 19.7038 71.043 17.7832ZM79.7246 14.1211C81.0007 14.1211 81.9479 14.4076 82.5664 14.9805C83.1849 15.5534 83.4941 16.4681 83.4941 17.7246V25H82.3125L82 23.418H81.9219C81.6224 23.8086 81.3099 24.1374 80.9844 24.4043C80.6589 24.6647 80.2812 24.8633 79.8516 25C79.4284 25.1302 78.9076 25.1953 78.2891 25.1953C77.638 25.1953 77.0586 25.0814 76.5508 24.8535C76.0495 24.6257 75.6523 24.2806 75.3594 23.8184C75.0729 23.3561 74.9297 22.7702 74.9297 22.0605C74.9297 20.9928 75.3529 20.1725 76.1992 19.5996C77.0456 19.0267 78.3346 18.7142 80.0664 18.6621L81.9121 18.584V17.9297C81.9121 17.0052 81.7135 16.3574 81.3164 15.9863C80.9193 15.6152 80.3594 15.4297 79.6367 15.4297C79.0768 15.4297 78.543 15.5111 78.0352 15.6738C77.5273 15.8366 77.0456 16.0286 76.5898 16.25L76.0918 15.0195C76.5736 14.7721 77.127 14.5605 77.752 14.3848C78.377 14.209 79.0345 14.1211 79.7246 14.1211ZM81.8926 19.7266L80.2617 19.7949C78.9271 19.847 77.9863 20.0651 77.4395 20.4492C76.8926 20.8333 76.6191 21.377 76.6191 22.0801C76.6191 22.6921 76.8047 23.1445 77.1758 23.4375C77.5469 23.7305 78.0384 23.877 78.6504 23.877C79.6009 23.877 80.3789 23.6133 80.9844 23.0859C81.5898 22.5586 81.8926 21.7676 81.8926 20.7129V19.7266ZM90.6426 25.1953C89.2884 25.1953 88.2142 24.7331 87.4199 23.8086C86.6322 22.8841 86.2383 21.5104 86.2383 19.6875C86.2383 17.8451 86.6419 16.4551 87.4492 15.5176C88.2565 14.5736 89.3307 14.1016 90.6719 14.1016C91.2383 14.1016 91.7331 14.1764 92.1562 14.3262C92.5794 14.4759 92.944 14.6777 93.25 14.9316C93.556 15.179 93.8132 15.4622 94.0215 15.7812H94.1387C94.1126 15.5794 94.0866 15.3027 94.0605 14.9512C94.0345 14.5996 94.0215 14.3132 94.0215 14.0918V9.80469H95.6426V25H94.334L94.0898 23.4766H94.0215C93.8197 23.7956 93.5625 24.0853 93.25 24.3457C92.944 24.6061 92.5762 24.8145 92.1465 24.9707C91.7233 25.1204 91.222 25.1953 90.6426 25.1953ZM90.8965 23.8477C92.0423 23.8477 92.8529 23.5221 93.3281 22.8711C93.8034 22.2201 94.041 21.2533 94.041 19.9707V19.6777C94.041 18.3171 93.8132 17.2721 93.3574 16.543C92.9082 15.8138 92.0879 15.4492 90.8965 15.4492C89.9004 15.4492 89.1549 15.8333 88.6602 16.6016C88.1654 17.3633 87.918 18.4049 87.918 19.7266C87.918 21.0417 88.1621 22.0573 88.6504 22.7734C89.1452 23.4896 89.8939 23.8477 90.8965 23.8477ZM108.309 19.6289C108.309 20.5078 108.195 21.2923 107.967 21.9824C107.739 22.6725 107.41 23.2552 106.98 23.7305C106.551 24.2057 106.03 24.5703 105.418 24.8242C104.812 25.0716 104.126 25.1953 103.357 25.1953C102.641 25.1953 101.984 25.0716 101.385 24.8242C100.792 24.5703 100.278 24.2057 99.8418 23.7305C99.4121 23.2552 99.0768 22.6725 98.8359 21.9824C98.6016 21.2923 98.4844 20.5078 98.4844 19.6289C98.4844 18.457 98.6829 17.4609 99.0801 16.6406C99.4772 15.8138 100.044 15.1855 100.779 14.7559C101.521 14.3197 102.404 14.1016 103.426 14.1016C104.402 14.1016 105.255 14.3197 105.984 14.7559C106.72 15.1921 107.29 15.8236 107.693 16.6504C108.104 17.4707 108.309 18.4635 108.309 19.6289ZM100.164 19.6289C100.164 20.4883 100.278 21.2337 100.506 21.8652C100.734 22.4967 101.085 22.985 101.561 23.3301C102.036 23.6751 102.648 23.8477 103.396 23.8477C104.139 23.8477 104.747 23.6751 105.223 23.3301C105.704 22.985 106.059 22.4967 106.287 21.8652C106.515 21.2337 106.629 20.4883 106.629 19.6289C106.629 18.776 106.515 18.0404 106.287 17.4219C106.059 16.7969 105.708 16.3151 105.232 15.9766C104.757 15.638 104.142 15.4688 103.387 15.4688C102.273 15.4688 101.456 15.8366 100.936 16.5723C100.421 17.3079 100.164 18.3268 100.164 19.6289ZM118.035 22.0703C118.035 22.7539 117.863 23.3301 117.518 23.7988C117.179 24.2611 116.691 24.6094 116.053 24.8438C115.421 25.0781 114.666 25.1953 113.787 25.1953C113.038 25.1953 112.391 25.1367 111.844 25.0195C111.297 24.9023 110.818 24.7363 110.408 24.5215V23.0273C110.844 23.2422 111.365 23.4375 111.971 23.6133C112.576 23.7891 113.195 23.877 113.826 23.877C114.751 23.877 115.421 23.7272 115.838 23.4277C116.255 23.1283 116.463 22.7214 116.463 22.207C116.463 21.9141 116.378 21.6569 116.209 21.4355C116.046 21.2077 115.77 20.9896 115.379 20.7812C114.988 20.5664 114.448 20.332 113.758 20.0781C113.074 19.8177 112.482 19.5605 111.98 19.3066C111.486 19.0462 111.102 18.7305 110.828 18.3594C110.561 17.9883 110.428 17.5065 110.428 16.9141C110.428 16.0091 110.792 15.3158 111.521 14.834C112.257 14.3457 113.221 14.1016 114.412 14.1016C115.057 14.1016 115.659 14.1667 116.219 14.2969C116.785 14.4206 117.312 14.5898 117.801 14.8047L117.254 16.1035C116.811 15.9147 116.339 15.7552 115.838 15.625C115.337 15.4948 114.826 15.4297 114.305 15.4297C113.556 15.4297 112.98 15.5534 112.576 15.8008C112.179 16.0482 111.98 16.3867 111.98 16.8164C111.98 17.1484 112.072 17.4219 112.254 17.6367C112.443 17.8516 112.742 18.0534 113.152 18.2422C113.562 18.431 114.103 18.6523 114.773 18.9062C115.444 19.1536 116.023 19.4108 116.512 19.6777C117 19.9382 117.374 20.2572 117.635 20.6348C117.902 21.0059 118.035 21.4844 118.035 22.0703ZM132.186 11.9824C131.398 11.9824 130.688 12.1191 130.057 12.3926C129.432 12.6595 128.898 13.0501 128.455 13.5645C128.019 14.0723 127.684 14.6875 127.449 15.4102C127.215 16.1328 127.098 16.9466 127.098 17.8516C127.098 19.0495 127.283 20.0911 127.654 20.9766C128.032 21.8555 128.592 22.5358 129.334 23.0176C130.083 23.4993 131.017 23.7402 132.137 23.7402C132.775 23.7402 133.374 23.6882 133.934 23.584C134.5 23.4733 135.05 23.3366 135.584 23.1738V24.6191C135.063 24.8145 134.516 24.9577 133.943 25.0488C133.37 25.1465 132.69 25.1953 131.902 25.1953C130.451 25.1953 129.236 24.8958 128.26 24.2969C127.29 23.6914 126.561 22.8385 126.072 21.7383C125.59 20.638 125.35 19.3392 125.35 17.8418C125.35 16.7611 125.499 15.7747 125.799 14.8828C126.105 13.9844 126.548 13.2096 127.127 12.5586C127.713 11.9076 128.429 11.4062 129.275 11.0547C130.128 10.6966 131.105 10.5176 132.205 10.5176C132.928 10.5176 133.624 10.5892 134.295 10.7324C134.965 10.8757 135.571 11.0807 136.111 11.3477L135.447 12.7539C134.992 12.5456 134.49 12.3665 133.943 12.2168C133.403 12.0605 132.817 11.9824 132.186 11.9824ZM142.439 14.1211C143.715 14.1211 144.663 14.4076 145.281 14.9805C145.9 15.5534 146.209 16.4681 146.209 17.7246V25H145.027L144.715 23.418H144.637C144.337 23.8086 144.025 24.1374 143.699 24.4043C143.374 24.6647 142.996 24.8633 142.566 25C142.143 25.1302 141.622 25.1953 141.004 25.1953C140.353 25.1953 139.773 25.0814 139.266 24.8535C138.764 24.6257 138.367 24.2806 138.074 23.8184C137.788 23.3561 137.645 22.7702 137.645 22.0605C137.645 20.9928 138.068 20.1725 138.914 19.5996C139.76 19.0267 141.049 18.7142 142.781 18.6621L144.627 18.584V17.9297C144.627 17.0052 144.428 16.3574 144.031 15.9863C143.634 15.6152 143.074 15.4297 142.352 15.4297C141.792 15.4297 141.258 15.5111 140.75 15.6738C140.242 15.8366 139.76 16.0286 139.305 16.25L138.807 15.0195C139.288 14.7721 139.842 14.5605 140.467 14.3848C141.092 14.209 141.749 14.1211 142.439 14.1211ZM144.607 19.7266L142.977 19.7949C141.642 19.847 140.701 20.0651 140.154 20.4492C139.607 20.8333 139.334 21.377 139.334 22.0801C139.334 22.6921 139.52 23.1445 139.891 23.4375C140.262 23.7305 140.753 23.877 141.365 23.877C142.316 23.877 143.094 23.6133 143.699 23.0859C144.305 22.5586 144.607 21.7676 144.607 20.7129V19.7266ZM153.357 25.1953C152.003 25.1953 150.929 24.7331 150.135 23.8086C149.347 22.8841 148.953 21.5104 148.953 19.6875C148.953 17.8451 149.357 16.4551 150.164 15.5176C150.971 14.5736 152.046 14.1016 153.387 14.1016C153.953 14.1016 154.448 14.1764 154.871 14.3262C155.294 14.4759 155.659 14.6777 155.965 14.9316C156.271 15.179 156.528 15.4622 156.736 15.7812H156.854C156.827 15.5794 156.801 15.3027 156.775 14.9512C156.749 14.5996 156.736 14.3132 156.736 14.0918V9.80469H158.357V25H157.049L156.805 23.4766H156.736C156.535 23.7956 156.277 24.0853 155.965 24.3457C155.659 24.6061 155.291 24.8145 154.861 24.9707C154.438 25.1204 153.937 25.1953 153.357 25.1953ZM153.611 23.8477C154.757 23.8477 155.568 23.5221 156.043 22.8711C156.518 22.2201 156.756 21.2533 156.756 19.9707V19.6777C156.756 18.3171 156.528 17.2721 156.072 16.543C155.623 15.8138 154.803 15.4492 153.611 15.4492C152.615 15.4492 151.87 15.8333 151.375 16.6016C150.88 17.3633 150.633 18.4049 150.633 19.7266C150.633 21.0417 150.877 22.0573 151.365 22.7734C151.86 23.4896 152.609 23.8477 153.611 23.8477ZM165.799 14.1211C167.075 14.1211 168.022 14.4076 168.641 14.9805C169.259 15.5534 169.568 16.4681 169.568 17.7246V25H168.387L168.074 23.418H167.996C167.697 23.8086 167.384 24.1374 167.059 24.4043C166.733 24.6647 166.355 24.8633 165.926 25C165.503 25.1302 164.982 25.1953 164.363 25.1953C163.712 25.1953 163.133 25.0814 162.625 24.8535C162.124 24.6257 161.727 24.2806 161.434 23.8184C161.147 23.3561 161.004 22.7702 161.004 22.0605C161.004 20.9928 161.427 20.1725 162.273 19.5996C163.12 19.0267 164.409 18.7142 166.141 18.6621L167.986 18.584V17.9297C167.986 17.0052 167.788 16.3574 167.391 15.9863C166.993 15.6152 166.434 15.4297 165.711 15.4297C165.151 15.4297 164.617 15.5111 164.109 15.6738C163.602 15.8366 163.12 16.0286 162.664 16.25L162.166 15.0195C162.648 14.7721 163.201 14.5605 163.826 14.3848C164.451 14.209 165.109 14.1211 165.799 14.1211ZM167.967 19.7266L166.336 19.7949C165.001 19.847 164.061 20.0651 163.514 20.4492C162.967 20.8333 162.693 21.377 162.693 22.0801C162.693 22.6921 162.879 23.1445 163.25 23.4375C163.621 23.7305 164.113 23.877 164.725 23.877C165.675 23.877 166.453 23.6133 167.059 23.0859C167.664 22.5586 167.967 21.7676 167.967 20.7129V19.7266ZM179.832 22.0703C179.832 22.7539 179.66 23.3301 179.314 23.7988C178.976 24.2611 178.488 24.6094 177.85 24.8438C177.218 25.0781 176.463 25.1953 175.584 25.1953C174.835 25.1953 174.188 25.1367 173.641 25.0195C173.094 24.9023 172.615 24.7363 172.205 24.5215V23.0273C172.641 23.2422 173.162 23.4375 173.768 23.6133C174.373 23.7891 174.992 23.877 175.623 23.877C176.548 23.877 177.218 23.7272 177.635 23.4277C178.051 23.1283 178.26 22.7214 178.26 22.207C178.26 21.9141 178.175 21.6569 178.006 21.4355C177.843 21.2077 177.566 20.9896 177.176 20.7812C176.785 20.5664 176.245 20.332 175.555 20.0781C174.871 19.8177 174.279 19.5605 173.777 19.3066C173.283 19.0462 172.898 18.7305 172.625 18.3594C172.358 17.9883 172.225 17.5065 172.225 16.9141C172.225 16.0091 172.589 15.3158 173.318 14.834C174.054 14.3457 175.018 14.1016 176.209 14.1016C176.854 14.1016 177.456 14.1667 178.016 14.2969C178.582 14.4206 179.109 14.5898 179.598 14.8047L179.051 16.1035C178.608 15.9147 178.136 15.7552 177.635 15.625C177.133 15.4948 176.622 15.4297 176.102 15.4297C175.353 15.4297 174.777 15.5534 174.373 15.8008C173.976 16.0482 173.777 16.3867 173.777 16.8164C173.777 17.1484 173.868 17.4219 174.051 17.6367C174.24 17.8516 174.539 18.0534 174.949 18.2422C175.359 18.431 175.9 18.6523 176.57 18.9062C177.241 19.1536 177.82 19.4108 178.309 19.6777C178.797 19.9382 179.171 20.2572 179.432 20.6348C179.699 21.0059 179.832 21.4844 179.832 22.0703ZM185.896 23.8672C186.163 23.8672 186.437 23.8444 186.717 23.7988C186.997 23.7533 187.225 23.6979 187.4 23.6328V24.8926C187.212 24.9772 186.948 25.0488 186.609 25.1074C186.277 25.166 185.952 25.1953 185.633 25.1953C185.066 25.1953 184.552 25.0977 184.09 24.9023C183.628 24.7005 183.257 24.362 182.977 23.8867C182.703 23.4115 182.566 22.7539 182.566 21.9141V15.5664H181.043V14.7754L182.576 14.1406L183.221 11.8164H184.197V14.2969H187.332V15.5664H184.197V21.8652C184.197 22.5358 184.35 23.0371 184.656 23.3691C184.969 23.7012 185.382 23.8672 185.896 23.8672ZM194.432 14.1016C194.646 14.1016 194.871 14.1146 195.105 14.1406C195.34 14.1602 195.548 14.1895 195.73 14.2285L195.525 15.7324C195.35 15.6868 195.154 15.651 194.939 15.625C194.725 15.599 194.523 15.5859 194.334 15.5859C193.904 15.5859 193.497 15.6738 193.113 15.8496C192.736 16.0189 192.404 16.2663 192.117 16.5918C191.831 16.9108 191.606 17.2982 191.443 17.7539C191.281 18.2031 191.199 18.7044 191.199 19.2578V25H189.568V14.2969H190.916L191.092 16.2695H191.16C191.382 15.8724 191.648 15.5111 191.961 15.1855C192.273 14.8535 192.635 14.5898 193.045 14.3945C193.462 14.1992 193.924 14.1016 194.432 14.1016ZM201.756 14.1211C203.032 14.1211 203.979 14.4076 204.598 14.9805C205.216 15.5534 205.525 16.4681 205.525 17.7246V25H204.344L204.031 23.418H203.953C203.654 23.8086 203.341 24.1374 203.016 24.4043C202.69 24.6647 202.312 24.8633 201.883 25C201.46 25.1302 200.939 25.1953 200.32 25.1953C199.669 25.1953 199.09 25.0814 198.582 24.8535C198.081 24.6257 197.684 24.2806 197.391 23.8184C197.104 23.3561 196.961 22.7702 196.961 22.0605C196.961 20.9928 197.384 20.1725 198.23 19.5996C199.077 19.0267 200.366 18.7142 202.098 18.6621L203.943 18.584V17.9297C203.943 17.0052 203.745 16.3574 203.348 15.9863C202.951 15.6152 202.391 15.4297 201.668 15.4297C201.108 15.4297 200.574 15.5111 200.066 15.6738C199.559 15.8366 199.077 16.0286 198.621 16.25L198.123 15.0195C198.605 14.7721 199.158 14.5605 199.783 14.3848C200.408 14.209 201.066 14.1211 201.756 14.1211ZM203.924 19.7266L202.293 19.7949C200.958 19.847 200.018 20.0651 199.471 20.4492C198.924 20.8333 198.65 21.377 198.65 22.0801C198.65 22.6921 198.836 23.1445 199.207 23.4375C199.578 23.7305 200.07 23.877 200.682 23.877C201.632 23.877 202.41 23.6133 203.016 23.0859C203.621 22.5586 203.924 21.7676 203.924 20.7129V19.7266ZM210.486 14.2969V25H208.865V14.2969H210.486ZM209.695 10.293C209.962 10.293 210.19 10.3809 210.379 10.5566C210.574 10.7259 210.672 10.9928 210.672 11.3574C210.672 11.7155 210.574 11.9824 210.379 12.1582C210.19 12.334 209.962 12.4219 209.695 12.4219C209.415 12.4219 209.181 12.334 208.992 12.1582C208.81 11.9824 208.719 11.7155 208.719 11.3574C208.719 10.9928 208.81 10.7259 208.992 10.5566C209.181 10.3809 209.415 10.293 209.695 10.293ZM220.848 22.0703C220.848 22.7539 220.675 23.3301 220.33 23.7988C219.992 24.2611 219.503 24.6094 218.865 24.8438C218.234 25.0781 217.479 25.1953 216.6 25.1953C215.851 25.1953 215.203 25.1367 214.656 25.0195C214.109 24.9023 213.631 24.7363 213.221 24.5215V23.0273C213.657 23.2422 214.178 23.4375 214.783 23.6133C215.389 23.7891 216.007 23.877 216.639 23.877C217.563 23.877 218.234 23.7272 218.65 23.4277C219.067 23.1283 219.275 22.7214 219.275 22.207C219.275 21.9141 219.191 21.6569 219.021 21.4355C218.859 21.2077 218.582 20.9896 218.191 20.7812C217.801 20.5664 217.26 20.332 216.57 20.0781C215.887 19.8177 215.294 19.5605 214.793 19.3066C214.298 19.0462 213.914 18.7305 213.641 18.3594C213.374 17.9883 213.24 17.5065 213.24 16.9141C213.24 16.0091 213.605 15.3158 214.334 14.834C215.07 14.3457 216.033 14.1016 217.225 14.1016C217.869 14.1016 218.471 14.1667 219.031 14.2969C219.598 14.4206 220.125 14.5898 220.613 14.8047L220.066 16.1035C219.624 15.9147 219.152 15.7552 218.65 15.625C218.149 15.4948 217.638 15.4297 217.117 15.4297C216.368 15.4297 215.792 15.5534 215.389 15.8008C214.992 16.0482 214.793 16.3867 214.793 16.8164C214.793 17.1484 214.884 17.4219 215.066 17.6367C215.255 17.8516 215.555 18.0534 215.965 18.2422C216.375 18.431 216.915 18.6523 217.586 18.9062C218.257 19.1536 218.836 19.4108 219.324 19.6777C219.812 19.9382 220.187 20.2572 220.447 20.6348C220.714 21.0059 220.848 21.4844 220.848 22.0703Z" fill="white"/>
</svg>
